<mxfile host="app.diagrams.net" modified="2023-12-03T21:37:00.069Z" agent="Mozilla/5.0 (Windows NT 10.0; Win64; x64) AppleWebKit/537.36 (KHTML, like Gecko) Chrome/119.0.0.0 Safari/537.36" etag="QSOQwyQyXOsUL7X1olSW" version="22.1.5" type="gitlab">
  <diagram name="Page-1" id="03018318-947c-dd8e-b7a3-06fadd420f32">
    <mxGraphModel dx="1588" dy="912" grid="1" gridSize="10" guides="1" tooltips="1" connect="1" arrows="1" fold="1" page="1" pageScale="1" pageWidth="1100" pageHeight="850" background="none" math="0" shadow="0">
      <root>
        <mxCell id="0" />
        <mxCell id="1" parent="0" />
        <mxCell id="677b7b8949515195-4" value="Home&lt;br&gt;" style="text;html=1;points=[];align=left;verticalAlign=top;spacingTop=-4;fontSize=14;fontFamily=Verdana" parent="1" vertex="1">
          <mxGeometry x="50" y="50" width="60" height="20" as="geometry" />
        </mxCell>
        <mxCell id="677b7b8949515195-5" value="History&lt;br&gt;" style="text;html=1;points=[];align=left;verticalAlign=top;spacingTop=-4;fontSize=14;fontFamily=Verdana" parent="1" vertex="1">
          <mxGeometry x="150" y="50" width="60" height="20" as="geometry" />
        </mxCell>
        <mxCell id="677b7b8949515195-7" value="Logout&lt;br&gt;" style="text;html=1;points=[];align=left;verticalAlign=top;spacingTop=-4;fontSize=14;fontFamily=Verdana" parent="1" vertex="1">
          <mxGeometry x="1000" y="50" width="60" height="20" as="geometry" />
        </mxCell>
        <mxCell id="677b7b8949515195-9" value="" style="line;strokeWidth=1;html=1;rounded=0;shadow=0;labelBackgroundColor=none;fillColor=none;fontFamily=Verdana;fontSize=14;fontColor=#000000;align=center;comic=1;" parent="1" vertex="1">
          <mxGeometry x="20" y="100" width="1060" height="10" as="geometry" />
        </mxCell>
        <mxCell id="8k1FQHr6KXmDuUrGovEx-14" value="V" style="childLayout=tableLayout;recursiveResize=0;strokeColor=#98bf21;fillColor=#A7C942;shadow=1;" vertex="1" parent="1">
          <mxGeometry x="100" y="180" width="900" height="280" as="geometry" />
        </mxCell>
        <mxCell id="8k1FQHr6KXmDuUrGovEx-15" style="shape=tableRow;horizontal=0;startSize=0;swimlaneHead=0;swimlaneBody=0;top=0;left=0;bottom=0;right=0;dropTarget=0;collapsible=0;recursiveResize=0;expand=0;fontStyle=0;strokeColor=inherit;fillColor=#ffffff;" vertex="1" parent="8k1FQHr6KXmDuUrGovEx-14">
          <mxGeometry width="900" height="70" as="geometry" />
        </mxCell>
        <mxCell id="8k1FQHr6KXmDuUrGovEx-56" value="Tax" style="connectable=0;recursiveResize=0;strokeColor=inherit;fillColor=#A7C942;align=center;fontStyle=1;fontColor=#FFFFFF;html=1;" vertex="1" parent="8k1FQHr6KXmDuUrGovEx-15">
          <mxGeometry width="100" height="70" as="geometry">
            <mxRectangle width="100" height="70" as="alternateBounds" />
          </mxGeometry>
        </mxCell>
        <mxCell id="8k1FQHr6KXmDuUrGovEx-52" value="Engine Size" style="connectable=0;recursiveResize=0;strokeColor=inherit;fillColor=#A7C942;align=center;fontStyle=1;fontColor=#FFFFFF;html=1;" vertex="1" parent="8k1FQHr6KXmDuUrGovEx-15">
          <mxGeometry x="100" width="100" height="70" as="geometry">
            <mxRectangle width="100" height="70" as="alternateBounds" />
          </mxGeometry>
        </mxCell>
        <mxCell id="8k1FQHr6KXmDuUrGovEx-48" value="Model" style="connectable=0;recursiveResize=0;strokeColor=inherit;fillColor=#A7C942;align=center;fontStyle=1;fontColor=#FFFFFF;html=1;" vertex="1" parent="8k1FQHr6KXmDuUrGovEx-15">
          <mxGeometry x="200" width="99" height="70" as="geometry">
            <mxRectangle width="99" height="70" as="alternateBounds" />
          </mxGeometry>
        </mxCell>
        <mxCell id="8k1FQHr6KXmDuUrGovEx-43" value="Mileage" style="connectable=0;recursiveResize=0;strokeColor=inherit;fillColor=#A7C942;align=center;fontStyle=1;fontColor=#FFFFFF;html=1;" vertex="1" parent="8k1FQHr6KXmDuUrGovEx-15">
          <mxGeometry x="299" width="99" height="70" as="geometry">
            <mxRectangle width="99" height="70" as="alternateBounds" />
          </mxGeometry>
        </mxCell>
        <mxCell id="8k1FQHr6KXmDuUrGovEx-39" value="Year" style="connectable=0;recursiveResize=0;strokeColor=inherit;fillColor=#A7C942;align=center;fontStyle=1;fontColor=#FFFFFF;html=1;" vertex="1" parent="8k1FQHr6KXmDuUrGovEx-15">
          <mxGeometry x="398" width="100" height="70" as="geometry">
            <mxRectangle width="100" height="70" as="alternateBounds" />
          </mxGeometry>
        </mxCell>
        <mxCell id="8k1FQHr6KXmDuUrGovEx-35" value="mpg" style="connectable=0;recursiveResize=0;strokeColor=inherit;fillColor=#A7C942;align=center;fontStyle=1;fontColor=#FFFFFF;html=1;" vertex="1" parent="8k1FQHr6KXmDuUrGovEx-15">
          <mxGeometry x="498" width="101" height="70" as="geometry">
            <mxRectangle width="101" height="70" as="alternateBounds" />
          </mxGeometry>
        </mxCell>
        <mxCell id="8k1FQHr6KXmDuUrGovEx-16" value="Prediction" style="connectable=0;recursiveResize=0;strokeColor=inherit;fillColor=#A7C942;align=center;fontStyle=1;fontColor=#FFFFFF;html=1;" vertex="1" parent="8k1FQHr6KXmDuUrGovEx-15">
          <mxGeometry x="599" width="99" height="70" as="geometry">
            <mxRectangle width="99" height="70" as="alternateBounds" />
          </mxGeometry>
        </mxCell>
        <mxCell id="8k1FQHr6KXmDuUrGovEx-17" value="Timestamp" style="connectable=0;recursiveResize=0;strokeColor=inherit;fillColor=#A7C942;align=center;fontStyle=1;fontColor=#FFFFFF;html=1;" vertex="1" parent="8k1FQHr6KXmDuUrGovEx-15">
          <mxGeometry x="698" width="102" height="70" as="geometry">
            <mxRectangle width="102" height="70" as="alternateBounds" />
          </mxGeometry>
        </mxCell>
        <mxCell id="8k1FQHr6KXmDuUrGovEx-18" value="Delete" style="connectable=0;recursiveResize=0;strokeColor=inherit;fillColor=#A7C942;align=center;fontStyle=1;fontColor=#FFFFFF;html=1;" vertex="1" parent="8k1FQHr6KXmDuUrGovEx-15">
          <mxGeometry x="800" width="100" height="70" as="geometry">
            <mxRectangle width="100" height="70" as="alternateBounds" />
          </mxGeometry>
        </mxCell>
        <mxCell id="8k1FQHr6KXmDuUrGovEx-19" value="" style="shape=tableRow;horizontal=0;startSize=0;swimlaneHead=0;swimlaneBody=0;top=0;left=0;bottom=0;right=0;dropTarget=0;collapsible=0;recursiveResize=0;expand=0;fontStyle=0;strokeColor=inherit;fillColor=#ffffff;" vertex="1" parent="8k1FQHr6KXmDuUrGovEx-14">
          <mxGeometry y="70" width="900" height="75" as="geometry" />
        </mxCell>
        <mxCell id="8k1FQHr6KXmDuUrGovEx-57" value="Value" style="connectable=0;recursiveResize=0;strokeColor=inherit;fillColor=inherit;align=center;whiteSpace=wrap;html=1;" vertex="1" parent="8k1FQHr6KXmDuUrGovEx-19">
          <mxGeometry width="100" height="75" as="geometry">
            <mxRectangle width="100" height="75" as="alternateBounds" />
          </mxGeometry>
        </mxCell>
        <mxCell id="8k1FQHr6KXmDuUrGovEx-53" value="Value" style="connectable=0;recursiveResize=0;strokeColor=inherit;fillColor=inherit;align=center;whiteSpace=wrap;html=1;" vertex="1" parent="8k1FQHr6KXmDuUrGovEx-19">
          <mxGeometry x="100" width="100" height="75" as="geometry">
            <mxRectangle width="100" height="75" as="alternateBounds" />
          </mxGeometry>
        </mxCell>
        <mxCell id="8k1FQHr6KXmDuUrGovEx-49" value="Value" style="connectable=0;recursiveResize=0;strokeColor=inherit;fillColor=inherit;align=center;whiteSpace=wrap;html=1;" vertex="1" parent="8k1FQHr6KXmDuUrGovEx-19">
          <mxGeometry x="200" width="99" height="75" as="geometry">
            <mxRectangle width="99" height="75" as="alternateBounds" />
          </mxGeometry>
        </mxCell>
        <mxCell id="8k1FQHr6KXmDuUrGovEx-44" value="Value" style="connectable=0;recursiveResize=0;strokeColor=inherit;fillColor=inherit;align=center;whiteSpace=wrap;html=1;" vertex="1" parent="8k1FQHr6KXmDuUrGovEx-19">
          <mxGeometry x="299" width="99" height="75" as="geometry">
            <mxRectangle width="99" height="75" as="alternateBounds" />
          </mxGeometry>
        </mxCell>
        <mxCell id="8k1FQHr6KXmDuUrGovEx-40" value="Value" style="connectable=0;recursiveResize=0;strokeColor=inherit;fillColor=inherit;align=center;whiteSpace=wrap;html=1;" vertex="1" parent="8k1FQHr6KXmDuUrGovEx-19">
          <mxGeometry x="398" width="100" height="75" as="geometry">
            <mxRectangle width="100" height="75" as="alternateBounds" />
          </mxGeometry>
        </mxCell>
        <mxCell id="8k1FQHr6KXmDuUrGovEx-36" value="Value" style="connectable=0;recursiveResize=0;strokeColor=inherit;fillColor=inherit;align=center;whiteSpace=wrap;html=1;" vertex="1" parent="8k1FQHr6KXmDuUrGovEx-19">
          <mxGeometry x="498" width="101" height="75" as="geometry">
            <mxRectangle width="101" height="75" as="alternateBounds" />
          </mxGeometry>
        </mxCell>
        <mxCell id="8k1FQHr6KXmDuUrGovEx-20" value="Value&amp;nbsp;" style="connectable=0;recursiveResize=0;strokeColor=inherit;fillColor=inherit;align=center;whiteSpace=wrap;html=1;" vertex="1" parent="8k1FQHr6KXmDuUrGovEx-19">
          <mxGeometry x="599" width="99" height="75" as="geometry">
            <mxRectangle width="99" height="75" as="alternateBounds" />
          </mxGeometry>
        </mxCell>
        <mxCell id="8k1FQHr6KXmDuUrGovEx-21" value="Value" style="connectable=0;recursiveResize=0;strokeColor=inherit;fillColor=inherit;align=center;whiteSpace=wrap;html=1;" vertex="1" parent="8k1FQHr6KXmDuUrGovEx-19">
          <mxGeometry x="698" width="102" height="75" as="geometry">
            <mxRectangle width="102" height="75" as="alternateBounds" />
          </mxGeometry>
        </mxCell>
        <mxCell id="8k1FQHr6KXmDuUrGovEx-22" value="" style="connectable=0;recursiveResize=0;strokeColor=inherit;fillColor=inherit;align=center;whiteSpace=wrap;html=1;" vertex="1" parent="8k1FQHr6KXmDuUrGovEx-19">
          <mxGeometry x="800" width="100" height="75" as="geometry">
            <mxRectangle width="100" height="75" as="alternateBounds" />
          </mxGeometry>
        </mxCell>
        <mxCell id="8k1FQHr6KXmDuUrGovEx-23" value="" style="shape=tableRow;horizontal=0;startSize=0;swimlaneHead=0;swimlaneBody=0;top=0;left=0;bottom=0;right=0;dropTarget=0;collapsible=0;recursiveResize=0;expand=0;fontStyle=1;strokeColor=inherit;fillColor=#EAF2D3;" vertex="1" parent="8k1FQHr6KXmDuUrGovEx-14">
          <mxGeometry y="145" width="900" height="65" as="geometry" />
        </mxCell>
        <mxCell id="8k1FQHr6KXmDuUrGovEx-58" style="connectable=0;recursiveResize=0;strokeColor=inherit;fillColor=inherit;whiteSpace=wrap;html=1;" vertex="1" parent="8k1FQHr6KXmDuUrGovEx-23">
          <mxGeometry width="100" height="65" as="geometry">
            <mxRectangle width="100" height="65" as="alternateBounds" />
          </mxGeometry>
        </mxCell>
        <mxCell id="8k1FQHr6KXmDuUrGovEx-54" style="connectable=0;recursiveResize=0;strokeColor=inherit;fillColor=inherit;whiteSpace=wrap;html=1;" vertex="1" parent="8k1FQHr6KXmDuUrGovEx-23">
          <mxGeometry x="100" width="100" height="65" as="geometry">
            <mxRectangle width="100" height="65" as="alternateBounds" />
          </mxGeometry>
        </mxCell>
        <mxCell id="8k1FQHr6KXmDuUrGovEx-50" style="connectable=0;recursiveResize=0;strokeColor=inherit;fillColor=inherit;whiteSpace=wrap;html=1;" vertex="1" parent="8k1FQHr6KXmDuUrGovEx-23">
          <mxGeometry x="200" width="99" height="65" as="geometry">
            <mxRectangle width="99" height="65" as="alternateBounds" />
          </mxGeometry>
        </mxCell>
        <mxCell id="8k1FQHr6KXmDuUrGovEx-45" style="connectable=0;recursiveResize=0;strokeColor=inherit;fillColor=inherit;whiteSpace=wrap;html=1;" vertex="1" parent="8k1FQHr6KXmDuUrGovEx-23">
          <mxGeometry x="299" width="99" height="65" as="geometry">
            <mxRectangle width="99" height="65" as="alternateBounds" />
          </mxGeometry>
        </mxCell>
        <mxCell id="8k1FQHr6KXmDuUrGovEx-41" style="connectable=0;recursiveResize=0;strokeColor=inherit;fillColor=inherit;whiteSpace=wrap;html=1;" vertex="1" parent="8k1FQHr6KXmDuUrGovEx-23">
          <mxGeometry x="398" width="100" height="65" as="geometry">
            <mxRectangle width="100" height="65" as="alternateBounds" />
          </mxGeometry>
        </mxCell>
        <mxCell id="8k1FQHr6KXmDuUrGovEx-37" style="connectable=0;recursiveResize=0;strokeColor=inherit;fillColor=inherit;whiteSpace=wrap;html=1;" vertex="1" parent="8k1FQHr6KXmDuUrGovEx-23">
          <mxGeometry x="498" width="101" height="65" as="geometry">
            <mxRectangle width="101" height="65" as="alternateBounds" />
          </mxGeometry>
        </mxCell>
        <mxCell id="8k1FQHr6KXmDuUrGovEx-24" value="Value 4" style="connectable=0;recursiveResize=0;strokeColor=inherit;fillColor=inherit;whiteSpace=wrap;html=1;" vertex="1" parent="8k1FQHr6KXmDuUrGovEx-23">
          <mxGeometry x="599" width="99" height="65" as="geometry">
            <mxRectangle width="99" height="65" as="alternateBounds" />
          </mxGeometry>
        </mxCell>
        <mxCell id="8k1FQHr6KXmDuUrGovEx-25" value="Value 5" style="connectable=0;recursiveResize=0;strokeColor=inherit;fillColor=inherit;whiteSpace=wrap;html=1;" vertex="1" parent="8k1FQHr6KXmDuUrGovEx-23">
          <mxGeometry x="698" width="102" height="65" as="geometry">
            <mxRectangle width="102" height="65" as="alternateBounds" />
          </mxGeometry>
        </mxCell>
        <mxCell id="8k1FQHr6KXmDuUrGovEx-26" value="Value 6" style="connectable=0;recursiveResize=0;strokeColor=inherit;fillColor=inherit;whiteSpace=wrap;html=1;" vertex="1" parent="8k1FQHr6KXmDuUrGovEx-23">
          <mxGeometry x="800" width="100" height="65" as="geometry">
            <mxRectangle width="100" height="65" as="alternateBounds" />
          </mxGeometry>
        </mxCell>
        <mxCell id="8k1FQHr6KXmDuUrGovEx-27" value="" style="shape=tableRow;horizontal=0;startSize=0;swimlaneHead=0;swimlaneBody=0;top=0;left=0;bottom=0;right=0;dropTarget=0;collapsible=0;recursiveResize=0;expand=0;fontStyle=0;strokeColor=inherit;fillColor=#ffffff;" vertex="1" parent="8k1FQHr6KXmDuUrGovEx-14">
          <mxGeometry y="210" width="900" height="70" as="geometry" />
        </mxCell>
        <mxCell id="8k1FQHr6KXmDuUrGovEx-59" style="connectable=0;recursiveResize=0;strokeColor=inherit;fillColor=inherit;fontStyle=0;align=center;whiteSpace=wrap;html=1;" vertex="1" parent="8k1FQHr6KXmDuUrGovEx-27">
          <mxGeometry width="100" height="70" as="geometry">
            <mxRectangle width="100" height="70" as="alternateBounds" />
          </mxGeometry>
        </mxCell>
        <mxCell id="8k1FQHr6KXmDuUrGovEx-55" style="connectable=0;recursiveResize=0;strokeColor=inherit;fillColor=inherit;fontStyle=0;align=center;whiteSpace=wrap;html=1;" vertex="1" parent="8k1FQHr6KXmDuUrGovEx-27">
          <mxGeometry x="100" width="100" height="70" as="geometry">
            <mxRectangle width="100" height="70" as="alternateBounds" />
          </mxGeometry>
        </mxCell>
        <mxCell id="8k1FQHr6KXmDuUrGovEx-51" style="connectable=0;recursiveResize=0;strokeColor=inherit;fillColor=inherit;fontStyle=0;align=center;whiteSpace=wrap;html=1;" vertex="1" parent="8k1FQHr6KXmDuUrGovEx-27">
          <mxGeometry x="200" width="99" height="70" as="geometry">
            <mxRectangle width="99" height="70" as="alternateBounds" />
          </mxGeometry>
        </mxCell>
        <mxCell id="8k1FQHr6KXmDuUrGovEx-46" style="connectable=0;recursiveResize=0;strokeColor=inherit;fillColor=inherit;fontStyle=0;align=center;whiteSpace=wrap;html=1;" vertex="1" parent="8k1FQHr6KXmDuUrGovEx-27">
          <mxGeometry x="299" width="99" height="70" as="geometry">
            <mxRectangle width="99" height="70" as="alternateBounds" />
          </mxGeometry>
        </mxCell>
        <mxCell id="8k1FQHr6KXmDuUrGovEx-42" style="connectable=0;recursiveResize=0;strokeColor=inherit;fillColor=inherit;fontStyle=0;align=center;whiteSpace=wrap;html=1;" vertex="1" parent="8k1FQHr6KXmDuUrGovEx-27">
          <mxGeometry x="398" width="100" height="70" as="geometry">
            <mxRectangle width="100" height="70" as="alternateBounds" />
          </mxGeometry>
        </mxCell>
        <mxCell id="8k1FQHr6KXmDuUrGovEx-38" style="connectable=0;recursiveResize=0;strokeColor=inherit;fillColor=inherit;fontStyle=0;align=center;whiteSpace=wrap;html=1;" vertex="1" parent="8k1FQHr6KXmDuUrGovEx-27">
          <mxGeometry x="498" width="101" height="70" as="geometry">
            <mxRectangle width="101" height="70" as="alternateBounds" />
          </mxGeometry>
        </mxCell>
        <mxCell id="8k1FQHr6KXmDuUrGovEx-28" value="Value 7" style="connectable=0;recursiveResize=0;strokeColor=inherit;fillColor=inherit;fontStyle=0;align=center;whiteSpace=wrap;html=1;" vertex="1" parent="8k1FQHr6KXmDuUrGovEx-27">
          <mxGeometry x="599" width="99" height="70" as="geometry">
            <mxRectangle width="99" height="70" as="alternateBounds" />
          </mxGeometry>
        </mxCell>
        <mxCell id="8k1FQHr6KXmDuUrGovEx-29" value="Value 8" style="connectable=0;recursiveResize=0;strokeColor=inherit;fillColor=inherit;fontStyle=0;align=center;whiteSpace=wrap;html=1;" vertex="1" parent="8k1FQHr6KXmDuUrGovEx-27">
          <mxGeometry x="698" width="102" height="70" as="geometry">
            <mxRectangle width="102" height="70" as="alternateBounds" />
          </mxGeometry>
        </mxCell>
        <mxCell id="8k1FQHr6KXmDuUrGovEx-30" value="Value 9" style="connectable=0;recursiveResize=0;strokeColor=inherit;fillColor=inherit;fontStyle=0;align=center;whiteSpace=wrap;html=1;" vertex="1" parent="8k1FQHr6KXmDuUrGovEx-27">
          <mxGeometry x="800" width="100" height="70" as="geometry">
            <mxRectangle width="100" height="70" as="alternateBounds" />
          </mxGeometry>
        </mxCell>
        <mxCell id="8k1FQHr6KXmDuUrGovEx-71" value="Delete" style="rounded=1;whiteSpace=wrap;html=1;fillColor=#e51400;strokeColor=#B20000;fontColor=#ffffff;" vertex="1" parent="1">
          <mxGeometry x="910" y="270" width="80" height="35" as="geometry" />
        </mxCell>
        <mxCell id="8k1FQHr6KXmDuUrGovEx-73" value="" style="shape=tableRow;horizontal=0;startSize=0;swimlaneHead=0;swimlaneBody=0;top=0;left=0;bottom=0;right=0;dropTarget=0;collapsible=0;recursiveResize=0;expand=0;fontStyle=0;strokeColor=inherit;fillColor=#ffffff;" vertex="1" parent="1">
          <mxGeometry x="100" y="320" width="900" height="75" as="geometry" />
        </mxCell>
        <mxCell id="8k1FQHr6KXmDuUrGovEx-74" value="Value" style="connectable=0;recursiveResize=0;strokeColor=inherit;fillColor=inherit;align=center;whiteSpace=wrap;html=1;" vertex="1" parent="8k1FQHr6KXmDuUrGovEx-73">
          <mxGeometry width="100" height="75" as="geometry">
            <mxRectangle width="100" height="75" as="alternateBounds" />
          </mxGeometry>
        </mxCell>
        <mxCell id="8k1FQHr6KXmDuUrGovEx-75" value="Value" style="connectable=0;recursiveResize=0;strokeColor=inherit;fillColor=inherit;align=center;whiteSpace=wrap;html=1;" vertex="1" parent="8k1FQHr6KXmDuUrGovEx-73">
          <mxGeometry x="100" width="100" height="75" as="geometry">
            <mxRectangle width="100" height="75" as="alternateBounds" />
          </mxGeometry>
        </mxCell>
        <mxCell id="8k1FQHr6KXmDuUrGovEx-76" value="Value" style="connectable=0;recursiveResize=0;strokeColor=inherit;fillColor=inherit;align=center;whiteSpace=wrap;html=1;" vertex="1" parent="8k1FQHr6KXmDuUrGovEx-73">
          <mxGeometry x="200" width="99" height="75" as="geometry">
            <mxRectangle width="99" height="75" as="alternateBounds" />
          </mxGeometry>
        </mxCell>
        <mxCell id="8k1FQHr6KXmDuUrGovEx-77" value="Value" style="connectable=0;recursiveResize=0;strokeColor=inherit;fillColor=inherit;align=center;whiteSpace=wrap;html=1;" vertex="1" parent="8k1FQHr6KXmDuUrGovEx-73">
          <mxGeometry x="299" width="99" height="75" as="geometry">
            <mxRectangle width="99" height="75" as="alternateBounds" />
          </mxGeometry>
        </mxCell>
        <mxCell id="8k1FQHr6KXmDuUrGovEx-78" value="Value" style="connectable=0;recursiveResize=0;strokeColor=inherit;fillColor=inherit;align=center;whiteSpace=wrap;html=1;" vertex="1" parent="8k1FQHr6KXmDuUrGovEx-73">
          <mxGeometry x="398" width="100" height="75" as="geometry">
            <mxRectangle width="100" height="75" as="alternateBounds" />
          </mxGeometry>
        </mxCell>
        <mxCell id="8k1FQHr6KXmDuUrGovEx-79" value="Value" style="connectable=0;recursiveResize=0;strokeColor=inherit;fillColor=inherit;align=center;whiteSpace=wrap;html=1;" vertex="1" parent="8k1FQHr6KXmDuUrGovEx-73">
          <mxGeometry x="498" width="101" height="75" as="geometry">
            <mxRectangle width="101" height="75" as="alternateBounds" />
          </mxGeometry>
        </mxCell>
        <mxCell id="8k1FQHr6KXmDuUrGovEx-80" value="Value&amp;nbsp;" style="connectable=0;recursiveResize=0;strokeColor=inherit;fillColor=inherit;align=center;whiteSpace=wrap;html=1;" vertex="1" parent="8k1FQHr6KXmDuUrGovEx-73">
          <mxGeometry x="599" width="99" height="75" as="geometry">
            <mxRectangle width="99" height="75" as="alternateBounds" />
          </mxGeometry>
        </mxCell>
        <mxCell id="8k1FQHr6KXmDuUrGovEx-81" value="Value" style="connectable=0;recursiveResize=0;strokeColor=inherit;fillColor=inherit;align=center;whiteSpace=wrap;html=1;" vertex="1" parent="8k1FQHr6KXmDuUrGovEx-73">
          <mxGeometry x="698" width="102" height="75" as="geometry">
            <mxRectangle width="102" height="75" as="alternateBounds" />
          </mxGeometry>
        </mxCell>
        <mxCell id="8k1FQHr6KXmDuUrGovEx-82" value="" style="connectable=0;recursiveResize=0;strokeColor=inherit;fillColor=inherit;align=center;whiteSpace=wrap;html=1;" vertex="1" parent="8k1FQHr6KXmDuUrGovEx-73">
          <mxGeometry x="800" width="100" height="75" as="geometry">
            <mxRectangle width="100" height="75" as="alternateBounds" />
          </mxGeometry>
        </mxCell>
        <mxCell id="8k1FQHr6KXmDuUrGovEx-93" value="" style="shape=tableRow;horizontal=0;startSize=0;swimlaneHead=0;swimlaneBody=0;top=0;left=0;bottom=0;right=0;dropTarget=0;collapsible=0;recursiveResize=0;expand=0;fontStyle=0;strokeColor=inherit;fillColor=#ffffff;" vertex="1" parent="1">
          <mxGeometry x="100" y="388" width="900" height="75" as="geometry" />
        </mxCell>
        <mxCell id="8k1FQHr6KXmDuUrGovEx-94" value="Value" style="connectable=0;recursiveResize=0;strokeColor=inherit;fillColor=inherit;align=center;whiteSpace=wrap;html=1;" vertex="1" parent="8k1FQHr6KXmDuUrGovEx-93">
          <mxGeometry width="100" height="75" as="geometry">
            <mxRectangle width="100" height="75" as="alternateBounds" />
          </mxGeometry>
        </mxCell>
        <mxCell id="8k1FQHr6KXmDuUrGovEx-95" value="Value" style="connectable=0;recursiveResize=0;strokeColor=inherit;fillColor=inherit;align=center;whiteSpace=wrap;html=1;" vertex="1" parent="8k1FQHr6KXmDuUrGovEx-93">
          <mxGeometry x="100" width="100" height="75" as="geometry">
            <mxRectangle width="100" height="75" as="alternateBounds" />
          </mxGeometry>
        </mxCell>
        <mxCell id="8k1FQHr6KXmDuUrGovEx-96" value="Value" style="connectable=0;recursiveResize=0;strokeColor=inherit;fillColor=inherit;align=center;whiteSpace=wrap;html=1;" vertex="1" parent="8k1FQHr6KXmDuUrGovEx-93">
          <mxGeometry x="200" width="99" height="75" as="geometry">
            <mxRectangle width="99" height="75" as="alternateBounds" />
          </mxGeometry>
        </mxCell>
        <mxCell id="8k1FQHr6KXmDuUrGovEx-97" value="Value" style="connectable=0;recursiveResize=0;strokeColor=inherit;fillColor=inherit;align=center;whiteSpace=wrap;html=1;" vertex="1" parent="8k1FQHr6KXmDuUrGovEx-93">
          <mxGeometry x="299" width="99" height="75" as="geometry">
            <mxRectangle width="99" height="75" as="alternateBounds" />
          </mxGeometry>
        </mxCell>
        <mxCell id="8k1FQHr6KXmDuUrGovEx-98" value="Value" style="connectable=0;recursiveResize=0;strokeColor=inherit;fillColor=inherit;align=center;whiteSpace=wrap;html=1;" vertex="1" parent="8k1FQHr6KXmDuUrGovEx-93">
          <mxGeometry x="398" width="100" height="75" as="geometry">
            <mxRectangle width="100" height="75" as="alternateBounds" />
          </mxGeometry>
        </mxCell>
        <mxCell id="8k1FQHr6KXmDuUrGovEx-99" value="Value" style="connectable=0;recursiveResize=0;strokeColor=inherit;fillColor=inherit;align=center;whiteSpace=wrap;html=1;" vertex="1" parent="8k1FQHr6KXmDuUrGovEx-93">
          <mxGeometry x="498" width="101" height="75" as="geometry">
            <mxRectangle width="101" height="75" as="alternateBounds" />
          </mxGeometry>
        </mxCell>
        <mxCell id="8k1FQHr6KXmDuUrGovEx-100" value="Value&amp;nbsp;" style="connectable=0;recursiveResize=0;strokeColor=inherit;fillColor=inherit;align=center;whiteSpace=wrap;html=1;" vertex="1" parent="8k1FQHr6KXmDuUrGovEx-93">
          <mxGeometry x="599" width="99" height="75" as="geometry">
            <mxRectangle width="99" height="75" as="alternateBounds" />
          </mxGeometry>
        </mxCell>
        <mxCell id="8k1FQHr6KXmDuUrGovEx-101" value="Value" style="connectable=0;recursiveResize=0;strokeColor=inherit;fillColor=inherit;align=center;whiteSpace=wrap;html=1;" vertex="1" parent="8k1FQHr6KXmDuUrGovEx-93">
          <mxGeometry x="698" width="102" height="75" as="geometry">
            <mxRectangle width="102" height="75" as="alternateBounds" />
          </mxGeometry>
        </mxCell>
        <mxCell id="8k1FQHr6KXmDuUrGovEx-102" value="" style="connectable=0;recursiveResize=0;strokeColor=inherit;fillColor=inherit;align=center;whiteSpace=wrap;html=1;" vertex="1" parent="8k1FQHr6KXmDuUrGovEx-93">
          <mxGeometry x="800" width="100" height="75" as="geometry">
            <mxRectangle width="100" height="75" as="alternateBounds" />
          </mxGeometry>
        </mxCell>
        <mxCell id="8k1FQHr6KXmDuUrGovEx-103" value="" style="shape=tableRow;horizontal=0;startSize=0;swimlaneHead=0;swimlaneBody=0;top=0;left=0;bottom=0;right=0;dropTarget=0;collapsible=0;recursiveResize=0;expand=0;fontStyle=0;strokeColor=inherit;fillColor=#ffffff;" vertex="1" parent="1">
          <mxGeometry x="100" y="460" width="900" height="75" as="geometry" />
        </mxCell>
        <mxCell id="8k1FQHr6KXmDuUrGovEx-104" value="Value" style="connectable=0;recursiveResize=0;strokeColor=inherit;fillColor=inherit;align=center;whiteSpace=wrap;html=1;" vertex="1" parent="8k1FQHr6KXmDuUrGovEx-103">
          <mxGeometry width="100" height="75" as="geometry">
            <mxRectangle width="100" height="75" as="alternateBounds" />
          </mxGeometry>
        </mxCell>
        <mxCell id="8k1FQHr6KXmDuUrGovEx-105" value="Value" style="connectable=0;recursiveResize=0;strokeColor=inherit;fillColor=inherit;align=center;whiteSpace=wrap;html=1;" vertex="1" parent="8k1FQHr6KXmDuUrGovEx-103">
          <mxGeometry x="100" width="100" height="75" as="geometry">
            <mxRectangle width="100" height="75" as="alternateBounds" />
          </mxGeometry>
        </mxCell>
        <mxCell id="8k1FQHr6KXmDuUrGovEx-106" value="Value" style="connectable=0;recursiveResize=0;strokeColor=inherit;fillColor=inherit;align=center;whiteSpace=wrap;html=1;" vertex="1" parent="8k1FQHr6KXmDuUrGovEx-103">
          <mxGeometry x="200" width="99" height="75" as="geometry">
            <mxRectangle width="99" height="75" as="alternateBounds" />
          </mxGeometry>
        </mxCell>
        <mxCell id="8k1FQHr6KXmDuUrGovEx-107" value="Value" style="connectable=0;recursiveResize=0;strokeColor=inherit;fillColor=inherit;align=center;whiteSpace=wrap;html=1;" vertex="1" parent="8k1FQHr6KXmDuUrGovEx-103">
          <mxGeometry x="299" width="99" height="75" as="geometry">
            <mxRectangle width="99" height="75" as="alternateBounds" />
          </mxGeometry>
        </mxCell>
        <mxCell id="8k1FQHr6KXmDuUrGovEx-108" value="Value" style="connectable=0;recursiveResize=0;strokeColor=inherit;fillColor=inherit;align=center;whiteSpace=wrap;html=1;" vertex="1" parent="8k1FQHr6KXmDuUrGovEx-103">
          <mxGeometry x="398" width="100" height="75" as="geometry">
            <mxRectangle width="100" height="75" as="alternateBounds" />
          </mxGeometry>
        </mxCell>
        <mxCell id="8k1FQHr6KXmDuUrGovEx-109" value="Value" style="connectable=0;recursiveResize=0;strokeColor=inherit;fillColor=inherit;align=center;whiteSpace=wrap;html=1;" vertex="1" parent="8k1FQHr6KXmDuUrGovEx-103">
          <mxGeometry x="498" width="101" height="75" as="geometry">
            <mxRectangle width="101" height="75" as="alternateBounds" />
          </mxGeometry>
        </mxCell>
        <mxCell id="8k1FQHr6KXmDuUrGovEx-110" value="Value&amp;nbsp;" style="connectable=0;recursiveResize=0;strokeColor=inherit;fillColor=inherit;align=center;whiteSpace=wrap;html=1;" vertex="1" parent="8k1FQHr6KXmDuUrGovEx-103">
          <mxGeometry x="599" width="99" height="75" as="geometry">
            <mxRectangle width="99" height="75" as="alternateBounds" />
          </mxGeometry>
        </mxCell>
        <mxCell id="8k1FQHr6KXmDuUrGovEx-111" value="Value" style="connectable=0;recursiveResize=0;strokeColor=inherit;fillColor=inherit;align=center;whiteSpace=wrap;html=1;" vertex="1" parent="8k1FQHr6KXmDuUrGovEx-103">
          <mxGeometry x="698" width="102" height="75" as="geometry">
            <mxRectangle width="102" height="75" as="alternateBounds" />
          </mxGeometry>
        </mxCell>
        <mxCell id="8k1FQHr6KXmDuUrGovEx-112" value="" style="connectable=0;recursiveResize=0;strokeColor=inherit;fillColor=inherit;align=center;whiteSpace=wrap;html=1;" vertex="1" parent="8k1FQHr6KXmDuUrGovEx-103">
          <mxGeometry x="800" width="100" height="75" as="geometry">
            <mxRectangle width="100" height="75" as="alternateBounds" />
          </mxGeometry>
        </mxCell>
        <mxCell id="8k1FQHr6KXmDuUrGovEx-113" value="" style="shape=tableRow;horizontal=0;startSize=0;swimlaneHead=0;swimlaneBody=0;top=0;left=0;bottom=0;right=0;dropTarget=0;collapsible=0;recursiveResize=0;expand=0;fontStyle=0;strokeColor=inherit;fillColor=#ffffff;" vertex="1" parent="1">
          <mxGeometry x="100" y="530" width="900" height="75" as="geometry" />
        </mxCell>
        <mxCell id="8k1FQHr6KXmDuUrGovEx-114" value="Value" style="connectable=0;recursiveResize=0;strokeColor=inherit;fillColor=inherit;align=center;whiteSpace=wrap;html=1;" vertex="1" parent="8k1FQHr6KXmDuUrGovEx-113">
          <mxGeometry width="100" height="75" as="geometry">
            <mxRectangle width="100" height="75" as="alternateBounds" />
          </mxGeometry>
        </mxCell>
        <mxCell id="8k1FQHr6KXmDuUrGovEx-115" value="Value" style="connectable=0;recursiveResize=0;strokeColor=inherit;fillColor=inherit;align=center;whiteSpace=wrap;html=1;" vertex="1" parent="8k1FQHr6KXmDuUrGovEx-113">
          <mxGeometry x="100" width="100" height="75" as="geometry">
            <mxRectangle width="100" height="75" as="alternateBounds" />
          </mxGeometry>
        </mxCell>
        <mxCell id="8k1FQHr6KXmDuUrGovEx-116" value="Value" style="connectable=0;recursiveResize=0;strokeColor=inherit;fillColor=inherit;align=center;whiteSpace=wrap;html=1;" vertex="1" parent="8k1FQHr6KXmDuUrGovEx-113">
          <mxGeometry x="200" width="99" height="75" as="geometry">
            <mxRectangle width="99" height="75" as="alternateBounds" />
          </mxGeometry>
        </mxCell>
        <mxCell id="8k1FQHr6KXmDuUrGovEx-117" value="Value" style="connectable=0;recursiveResize=0;strokeColor=inherit;fillColor=inherit;align=center;whiteSpace=wrap;html=1;" vertex="1" parent="8k1FQHr6KXmDuUrGovEx-113">
          <mxGeometry x="299" width="99" height="75" as="geometry">
            <mxRectangle width="99" height="75" as="alternateBounds" />
          </mxGeometry>
        </mxCell>
        <mxCell id="8k1FQHr6KXmDuUrGovEx-118" value="Value" style="connectable=0;recursiveResize=0;strokeColor=inherit;fillColor=inherit;align=center;whiteSpace=wrap;html=1;" vertex="1" parent="8k1FQHr6KXmDuUrGovEx-113">
          <mxGeometry x="398" width="100" height="75" as="geometry">
            <mxRectangle width="100" height="75" as="alternateBounds" />
          </mxGeometry>
        </mxCell>
        <mxCell id="8k1FQHr6KXmDuUrGovEx-119" value="Value" style="connectable=0;recursiveResize=0;strokeColor=inherit;fillColor=inherit;align=center;whiteSpace=wrap;html=1;" vertex="1" parent="8k1FQHr6KXmDuUrGovEx-113">
          <mxGeometry x="498" width="101" height="75" as="geometry">
            <mxRectangle width="101" height="75" as="alternateBounds" />
          </mxGeometry>
        </mxCell>
        <mxCell id="8k1FQHr6KXmDuUrGovEx-120" value="Value&amp;nbsp;" style="connectable=0;recursiveResize=0;strokeColor=inherit;fillColor=inherit;align=center;whiteSpace=wrap;html=1;" vertex="1" parent="8k1FQHr6KXmDuUrGovEx-113">
          <mxGeometry x="599" width="99" height="75" as="geometry">
            <mxRectangle width="99" height="75" as="alternateBounds" />
          </mxGeometry>
        </mxCell>
        <mxCell id="8k1FQHr6KXmDuUrGovEx-121" value="Value" style="connectable=0;recursiveResize=0;strokeColor=inherit;fillColor=inherit;align=center;whiteSpace=wrap;html=1;" vertex="1" parent="8k1FQHr6KXmDuUrGovEx-113">
          <mxGeometry x="698" width="102" height="75" as="geometry">
            <mxRectangle width="102" height="75" as="alternateBounds" />
          </mxGeometry>
        </mxCell>
        <mxCell id="8k1FQHr6KXmDuUrGovEx-122" value="" style="connectable=0;recursiveResize=0;strokeColor=inherit;fillColor=inherit;align=center;whiteSpace=wrap;html=1;" vertex="1" parent="8k1FQHr6KXmDuUrGovEx-113">
          <mxGeometry x="800" width="100" height="75" as="geometry">
            <mxRectangle width="100" height="75" as="alternateBounds" />
          </mxGeometry>
        </mxCell>
        <mxCell id="8k1FQHr6KXmDuUrGovEx-123" value="" style="shape=tableRow;horizontal=0;startSize=0;swimlaneHead=0;swimlaneBody=0;top=0;left=0;bottom=0;right=0;dropTarget=0;collapsible=0;recursiveResize=0;expand=0;fontStyle=0;strokeColor=inherit;fillColor=#ffffff;" vertex="1" parent="1">
          <mxGeometry x="100" y="600" width="900" height="75" as="geometry" />
        </mxCell>
        <mxCell id="8k1FQHr6KXmDuUrGovEx-124" value="Value" style="connectable=0;recursiveResize=0;strokeColor=inherit;fillColor=inherit;align=center;whiteSpace=wrap;html=1;" vertex="1" parent="8k1FQHr6KXmDuUrGovEx-123">
          <mxGeometry width="100" height="75" as="geometry">
            <mxRectangle width="100" height="75" as="alternateBounds" />
          </mxGeometry>
        </mxCell>
        <mxCell id="8k1FQHr6KXmDuUrGovEx-125" value="Value" style="connectable=0;recursiveResize=0;strokeColor=inherit;fillColor=inherit;align=center;whiteSpace=wrap;html=1;" vertex="1" parent="8k1FQHr6KXmDuUrGovEx-123">
          <mxGeometry x="100" width="100" height="75" as="geometry">
            <mxRectangle width="100" height="75" as="alternateBounds" />
          </mxGeometry>
        </mxCell>
        <mxCell id="8k1FQHr6KXmDuUrGovEx-126" value="Value" style="connectable=0;recursiveResize=0;strokeColor=inherit;fillColor=inherit;align=center;whiteSpace=wrap;html=1;" vertex="1" parent="8k1FQHr6KXmDuUrGovEx-123">
          <mxGeometry x="200" width="99" height="75" as="geometry">
            <mxRectangle width="99" height="75" as="alternateBounds" />
          </mxGeometry>
        </mxCell>
        <mxCell id="8k1FQHr6KXmDuUrGovEx-127" value="Value" style="connectable=0;recursiveResize=0;strokeColor=inherit;fillColor=inherit;align=center;whiteSpace=wrap;html=1;" vertex="1" parent="8k1FQHr6KXmDuUrGovEx-123">
          <mxGeometry x="299" width="99" height="75" as="geometry">
            <mxRectangle width="99" height="75" as="alternateBounds" />
          </mxGeometry>
        </mxCell>
        <mxCell id="8k1FQHr6KXmDuUrGovEx-128" value="Value" style="connectable=0;recursiveResize=0;strokeColor=inherit;fillColor=inherit;align=center;whiteSpace=wrap;html=1;" vertex="1" parent="8k1FQHr6KXmDuUrGovEx-123">
          <mxGeometry x="398" width="100" height="75" as="geometry">
            <mxRectangle width="100" height="75" as="alternateBounds" />
          </mxGeometry>
        </mxCell>
        <mxCell id="8k1FQHr6KXmDuUrGovEx-129" value="Value" style="connectable=0;recursiveResize=0;strokeColor=inherit;fillColor=inherit;align=center;whiteSpace=wrap;html=1;" vertex="1" parent="8k1FQHr6KXmDuUrGovEx-123">
          <mxGeometry x="498" width="101" height="75" as="geometry">
            <mxRectangle width="101" height="75" as="alternateBounds" />
          </mxGeometry>
        </mxCell>
        <mxCell id="8k1FQHr6KXmDuUrGovEx-130" value="Value&amp;nbsp;" style="connectable=0;recursiveResize=0;strokeColor=inherit;fillColor=inherit;align=center;whiteSpace=wrap;html=1;" vertex="1" parent="8k1FQHr6KXmDuUrGovEx-123">
          <mxGeometry x="599" width="99" height="75" as="geometry">
            <mxRectangle width="99" height="75" as="alternateBounds" />
          </mxGeometry>
        </mxCell>
        <mxCell id="8k1FQHr6KXmDuUrGovEx-131" value="Value" style="connectable=0;recursiveResize=0;strokeColor=inherit;fillColor=inherit;align=center;whiteSpace=wrap;html=1;" vertex="1" parent="8k1FQHr6KXmDuUrGovEx-123">
          <mxGeometry x="698" width="102" height="75" as="geometry">
            <mxRectangle width="102" height="75" as="alternateBounds" />
          </mxGeometry>
        </mxCell>
        <mxCell id="8k1FQHr6KXmDuUrGovEx-132" value="" style="connectable=0;recursiveResize=0;strokeColor=inherit;fillColor=inherit;align=center;whiteSpace=wrap;html=1;" vertex="1" parent="8k1FQHr6KXmDuUrGovEx-123">
          <mxGeometry x="800" width="100" height="75" as="geometry">
            <mxRectangle width="100" height="75" as="alternateBounds" />
          </mxGeometry>
        </mxCell>
        <mxCell id="8k1FQHr6KXmDuUrGovEx-133" value="Delete" style="rounded=1;whiteSpace=wrap;html=1;fillColor=#e51400;strokeColor=#B20000;fontColor=#ffffff;" vertex="1" parent="1">
          <mxGeometry x="910" y="340" width="80" height="35" as="geometry" />
        </mxCell>
        <mxCell id="8k1FQHr6KXmDuUrGovEx-134" value="Delete" style="rounded=1;whiteSpace=wrap;html=1;fillColor=#e51400;strokeColor=#B20000;fontColor=#ffffff;" vertex="1" parent="1">
          <mxGeometry x="910" y="550" width="80" height="35" as="geometry" />
        </mxCell>
        <mxCell id="8k1FQHr6KXmDuUrGovEx-135" value="Delete" style="rounded=1;whiteSpace=wrap;html=1;fillColor=#e51400;strokeColor=#B20000;fontColor=#ffffff;" vertex="1" parent="1">
          <mxGeometry x="910" y="480" width="80" height="35" as="geometry" />
        </mxCell>
        <mxCell id="8k1FQHr6KXmDuUrGovEx-136" value="Delete" style="rounded=1;whiteSpace=wrap;html=1;fillColor=#e51400;strokeColor=#B20000;fontColor=#ffffff;" vertex="1" parent="1">
          <mxGeometry x="910" y="408" width="80" height="35" as="geometry" />
        </mxCell>
        <mxCell id="8k1FQHr6KXmDuUrGovEx-138" value="Delete" style="rounded=1;whiteSpace=wrap;html=1;fillColor=#e51400;strokeColor=#B20000;fontColor=#ffffff;" vertex="1" parent="1">
          <mxGeometry x="910" y="620" width="80" height="35" as="geometry" />
        </mxCell>
        <mxCell id="8k1FQHr6KXmDuUrGovEx-150" value="" style="line;strokeWidth=1;html=1;rounded=0;shadow=0;labelBackgroundColor=none;fillColor=none;fontFamily=Verdana;fontSize=14;fontColor=#000000;align=center;comic=1;" vertex="1" parent="1">
          <mxGeometry x="40" y="770" width="1060" height="10" as="geometry" />
        </mxCell>
        <mxCell id="8k1FQHr6KXmDuUrGovEx-151" value="Footer" style="text;html=1;points=[];align=left;verticalAlign=top;spacingTop=-4;fontSize=14;fontFamily=Verdana" vertex="1" parent="1">
          <mxGeometry x="510" y="800" width="60" height="20" as="geometry" />
        </mxCell>
      </root>
    </mxGraphModel>
  </diagram>
</mxfile>
